<svg id="fi_2816103" enable-background="new 0 0 500 500" height="32" viewBox="0 0 500 500" width="32" xmlns="http://www.w3.org/2000/svg"><g id="XMLID_1749_"><g id="XMLID_1832_"><path d="m255.824 476.862h-32.433c-2.79 0-5.051-2.256-5.051-5.04s2.261-5.04 5.051-5.04h32.433c2.79 0 5.05 2.256 5.05 5.04s-2.261 5.04-5.05 5.04z"></path><g id="XMLID_1949_"><path id="XMLID_1967_" d="m245.401 392.172c-1.391-2.973-4.937-4.259-7.92-2.873s-4.274 4.92-2.883 7.893 4.937 4.259 7.92 2.873 4.274-4.92 2.883-7.893z"></path><path d="m225.731 424.375-33.957-59.972c-1.372-2.424-.516-5.498 1.913-6.869 2.431-1.368 5.509-.514 6.882 1.909l31.659 55.916 27.551-12.804-32.256-47.988c-1.554-2.312-.936-5.443 1.381-6.994 2.316-1.552 5.454-.934 7.008 1.378l35.544 52.879c1.7 2.53.697 6.096-2.063 7.377l-37.133 17.257c-.687.32-4.314 2.614-6.529-2.089z"></path></g></g><g id="XMLID_1602_"><path d="m437.719 404.099c-25.644 0-46.508-20.852-46.508-46.484s20.864-46.485 46.508-46.485 46.508 20.853 46.508 46.485-20.864 46.484-46.508 46.484zm0-82.887c-20.075 0-36.407 16.33-36.407 36.404 0 20.072 16.332 36.403 36.407 36.403s36.407-16.33 36.407-36.403c0-20.074-16.332-36.404-36.407-36.404z"></path></g><g id="XMLID_1751_"><g id="XMLID_1752_"><path d="m245.676 113.869c-25.645 0-46.509-20.852-46.509-46.484s20.864-46.484 46.509-46.484c25.644 0 46.508 20.852 46.508 46.484s-20.864 46.484-46.508 46.484zm0-82.886c-20.076 0-36.408 16.33-36.408 36.403s16.332 36.403 36.408 36.403c20.075 0 36.407-16.33 36.407-36.403s-16.333-36.403-36.407-36.403z"></path></g></g><g id="XMLID_2099_"><path d="m429.843 444.237h-16.615l.002-27.706c0-2.783-2.261-5.04-5.051-5.04-2.789 0-5.051 2.256-5.051 5.04l-.002 27.706h-328.043l.007-102.156c0-2.783-2.261-5.04-5.051-5.04-2.789 0-5.051 2.256-5.051 5.04l-.007 102.156h-16.604c-2.79 0-5.051 2.269-5.051 5.053 0 27.395 22.332 49.682 49.781 49.682h292.005c27.449 0 49.781-22.287 49.781-49.695.001-2.783-2.26-5.04-5.05-5.04zm-44.73 44.655h-292.005c-20.17 0-36.874-15.097-39.36-34.574h370.727c-2.484 19.471-19.189 34.574-39.362 34.574z"></path><g id="XMLID_1951_"><path d="m175.753 303.566c-5.28 0-6.906-7.395-2.135-9.61l5.353-2.488c2.526-1.174 5.532-.083 6.71 2.441 1.178 2.523.083 5.522-2.446 6.696l-5.353 2.488c-.69.322-1.415.473-2.129.473z"></path><path d="m181.374 317.337c-5.28 0-6.906-7.395-2.135-9.61l5.353-2.488c2.527-1.176 5.532-.084 6.71 2.441 1.178 2.523.083 5.522-2.446 6.696l-5.353 2.488c-.69.322-1.415.473-2.129.473z"></path><path d="m189.337 330.84c-5.28 0-6.907-7.394-2.136-9.61l5.352-2.488c2.529-1.176 5.534-.083 6.711 2.44 1.178 2.524.083 5.523-2.445 6.697l-5.352 2.488c-.691.322-1.416.473-2.13.473z"></path></g></g><path d="m394.368 223.697h-78.581c-9.405-16.384-20.12-31.229-31.183-43.041-9.209-9.834-26.344-25.546-37.642-20.299-3.655 1.699-5.688 5.175-6.81 8.893l-16.378 54.447h-114.81c-9.904-9.764-23.508-15.802-38.503-15.802-30.231 0-54.826 24.53-54.826 54.682s24.595 54.682 54.826 54.682c7.899 0 15.405-1.688 22.196-4.7l.185 106.854c.005 2.781 2.265 5.032 5.05 5.032h.009c2.79-.005 5.047-2.265 5.042-5.049l-.188-112.668c13.645-9.956 22.53-26.034 22.53-44.15 0-.089-.006-.176-.007-.265h70.377c-8.252 7.119-17.074 12.915-24.891 16.548l-20.186 9.381c-17.229 8.006-24.956 29.036-16.894 46.266 8.137 17.396 28.959 24.948 46.407 16.837l20.186-9.38c20.812-9.671 55.292-14.113 76.971-4.802l51.811 22.249c8.248 3.711 15.507-.145 18.48-8.297 5.368-14.718 2.092-49.34-13.279-88.802h41.278v157.093c0 2.784 2.261 5.04 5.051 5.04s5.051-2.256 5.051-5.04v-162.134c0-2.784-2.261-5.04-5.051-5.04h-50.485c-2.715-6.255-5.649-12.407-8.802-18.454h73.064c4.835 0 8.769 3.924 8.769 8.746l-.004 26.299c0 2.784 2.261 5.041 5.05 5.041h.001c2.789 0 5.051-2.256 5.051-5.04l.004-26.3c.002-10.382-8.464-18.827-18.869-18.827zm-323.907 83.481c-24.662 0-44.725-20.008-44.725-44.601s20.063-44.601 44.725-44.601c24.661 0 44.724 20.008 44.724 44.601s-20.063 44.601-44.724 44.601zm53.828-54.947c-1.284-6.659-3.793-12.886-7.266-18.454h102.436c-3.449 6.435-8.105 12.685-13.394 18.454zm18.549 78.012c-6.19-13.006.768-28.104 13.637-33.622 3.775 16.227 10.937 31.516 20.982 44.83 0-.001-23.164 12.86-34.619-11.208zm43.987 6.854c-10.328-13.14-17.516-28.502-20.979-44.832 0 0 16.415-7.936 20.149-10.267 3.784 16.83 11.171 32.604 21.674 46.311-4.186 1.349-20.844 8.788-20.844 8.788zm94.418-9.195c-18.025-7.741-42.359-7.239-62.993-2.496-11.852-14.322-19.826-31.36-23.219-49.615 15.501-11.634 30.327-27.969 37.021-45.235 3.869-9.957 6.391-20.566 9.467-30.792 4.532 21.634 14.616 48.767 25.788 72.645 8.974 19.18 24.092 47.064 39.329 66.398zm2.865-63.307c-1.178-2.523-4.18-3.616-6.711-2.44l-2.93 1.362-2.741-5.858 8.885-4.13c5.776-2.683 12.66-.185 15.351 5.565 2.662 5.69.1 12.639-5.584 15.283l-8.896 4.134-2.742-5.86 2.922-1.358c2.529-1.176 3.623-4.174 2.446-6.698-1.178-2.523 1.177 2.524 0 0zm51.974 86.23c-1.134.537-8.249-1.198-22.327-19.264-9.039-11.6-18.585-26.843-27.674-44.068l8.561-3.978c10.674-4.961 15.471-18.005 10.472-28.685-5.045-10.784-17.953-15.468-28.766-10.438l-8.573 3.984c-15.813-38.491-21.134-67.613-17.679-77.084.361-.991.764-1.938 1.949-1.938 3.091 0 11.951 4.058 25.182 18.186 14.947 15.959 29.286 37.801 40.374 61.499 19.584 41.856 25.863 83.785 20.45 98.629-.78 2.132-1.604 2.988-1.969 3.157-1.135.536.365-.169 0 0z"></path><g id="XMLID_1750_"><g id="XMLID_2204_"><path d="m493.516 83.495c2.79 0 5.051-2.256 5.051-5.04v-50.106c0-2.784-2.261-5.04-5.051-5.04h-162.61c-2.789 0-5.049 2.255-5.051 5.038l-.067 130.791c-.002 2.723 2.316 5.043 5.051 5.043h162.678c2.79 0 5.051-2.256 5.051-5.04v-39.365c0-2.825-2.524-5.607-5.393-5.607h-157.263l.041-80.779h152.512v45.065c.001 2.784 2.262 5.04 5.051 5.04zm-5.05 40.754v29.85h-152.574l.015-29.85z"></path><path d="m358.637 144.113h-10.122c-2.79 0-5.051-2.256-5.051-5.04s2.261-5.04 5.051-5.04h10.122c2.79 0 5.051 2.256 5.051 5.04s-2.261 5.04-5.051 5.04z"></path><path d="m476.07 134.032h-.017v-.018c0-2.784-2.261-5.04-5.051-5.04s-5.051 2.256-5.051 5.04v.018h-.018c-2.79 0-5.05 2.256-5.05 5.04s2.261 5.04 5.05 5.04h.018v.018c0 2.784 2.261 5.04 5.051 5.04s5.051-2.256 5.051-5.04v-.018h.017c2.79 0 5.051-2.256 5.051-5.04s-2.261-5.04-5.051-5.04z"></path><path d="m447.891 134.032h-41.497c-1.583-2.224-4.178-3.679-7.118-3.679s-5.536 1.455-7.118 3.679h-15.892c-2.79 0-5.051 2.256-5.051 5.04s2.261 5.04 5.051 5.04h15.892c1.583 2.223 4.178 3.679 7.118 3.679s5.535-1.456 7.118-3.679h41.497c2.79 0 5.051-2.256 5.051-5.04s-2.261-5.04-5.051-5.04z"></path><path d="m422.941 98.237-33.775-17.824c-5.311-2.804-5.317-10.677.001-13.48l33.776-17.825c4.982-2.629 11.201 1.115 11.201 6.74v35.651c0 5.075-4.178 9.444-11.203 6.738zm-24.938-24.564 26.04 13.742v-27.484z"></path></g></g><g id="XMLID_3006_"><ellipse id="XMLID_1179_" cx="408.188" cy="289.315" rx="6.483" ry="6.472"></ellipse><ellipse id="XMLID_1177_" cx="493.517" cy="98.872" rx="6.483" ry="6.472"></ellipse></g><g id="XMLID_1624_"><g id="XMLID_672_"><path d="m43.512 181.434h-38.461c-2.79 0-5.051-2.256-5.051-5.04v-99.326c0-2.784 2.261-5.04 5.051-5.04h38.462c2.79 0 5.051 2.256 5.051 5.04v99.326c-.001 2.784-2.262 5.04-5.052 5.04zm-33.411-10.081h28.361v-89.245h-28.361z"></path><path d="m141.107 184.065h-64.732c-2.79 0-5.05-2.256-5.05-5.04s2.261-5.04 5.05-5.04h64.732c4.152 0 7.53-3.37 7.53-7.512 0-4.185-3.413-7.59-7.609-7.59h-14.671c-2.2 0-4.142-1.421-4.81-3.504-1.061-3.203 1.366-6.658 4.784-6.658h21.866c4.152 0 7.529-3.37 7.529-7.511 0-4.185-3.413-7.59-7.608-7.59h-17.384c-2.705 0-4.98-2.228-5.085-4.917-.11-2.816 2.216-5.245 5.04-5.245h24.597c4.152 0 7.529-3.37 7.529-7.511 0-4.185-3.413-7.589-7.608-7.589h-22.939c-2.79 0-5.051-2.256-5.051-5.04s2.261-5.122 5.051-5.122h30.109c4.151 0 7.528-3.369 7.528-7.511.014-4.132-3.425-7.59-7.569-7.59l-65.166-.135c-.27-.001-.54-.023-.806-.066-3.517-.575-5.367-2.332-6.3-3.705s-1.884-3.74-1.118-7.215c.057-.26.135-.515.233-.762 2.284-5.79 5.181-14.219 6.075-18.302 2.731-12.458-1.1-26.477-10.287-38.238-4.976 19.419-11.053 35.384-18.101 47.541-1.397 2.408-4.488 3.232-6.901 1.839-2.415-1.395-3.239-4.478-1.843-6.887 7.436-12.825 13.774-30.416 18.836-52.285 1.465-6.325 9.62-3.699 12.646-.359 13.41 14.794 19.213 33.689 15.518 50.544-.943 4.301-3.478 11.823-5.762 17.819l62.986.128c9.648 0 17.692 8.061 17.66 17.688 0 6.906-4.023 12.9-9.856 15.771 1.752 2.74 2.767 5.99 2.767 9.475 0 6.918-4.023 12.916-9.856 15.788 1.752 2.74 2.767 5.991 2.767 9.476 0 6.918-4.023 12.916-9.856 15.788 1.752 2.741 2.767 5.991 2.767 9.476 0 9.698-7.909 17.591-17.632 17.591z"></path></g></g><g id="XMLID_1180_"><ellipse id="XMLID_367_" cx="24.281" cy="150.732" rx="7.09" ry="7.074"></ellipse></g><g id="XMLID_153_"><path id="XMLID_158_" d="m65.01 252.65c0-9.746-4.862-15.801-12.691-15.801-7.73 0-13.129 6.767-13.129 16.464.089 11.006 6.475 15.932 12.766 15.932 6.498 0 13.054-5.131 13.054-16.595zm-12.907 9.121c-3.85 0-4.279-6.134-4.219-8.687 0-3.253.888-8.76 4.219-8.76 3.667 0 4.215 5.398 4.215 8.616-.001 2.656-.411 8.831-4.215 8.831z"></path><path id="XMLID_157_" d="m81.605 236.85-29.568 52.056h8.234l29.568-52.056z"></path><path id="XMLID_154_" d="m89.126 256.223c-6.532 0-13.123 5.111-13.123 16.535.082 10.957 6.468 15.861 12.76 15.861 6.462 0 12.982-5.131 12.982-16.593.001-9.748-4.835-15.803-12.619-15.803zm-.216 24.921c-3.795 0-4.321-6.04-4.291-8.687 0-4.219 1.342-8.76 4.291-8.76 3.809 0 4.22 6.026 4.22 8.617 0 2.655-.411 8.83-4.22 8.83z"></path></g><g id="XMLID_1498_"><path id="XMLID_113_" d="m434.363 348.202c0-1.642 1.185-3.396 4.509-3.396 2.908 0 5.23 1.091 7.677 2.488l2.353-6.203c-2.196-1.455-4.659-2.321-7.282-2.617v-5.454h-6.289v5.839c-4.891 1.256-8.398 5.083-8.398 10.006 0 6.073 4.78 8.791 9.954 10.818 4.752 1.924 5.396 3.694 5.396 5.321 0 2.428-2.106 4.06-5.231 4.06-3.296 0-6-1.336-8.667-3.112l-2.263 6.303c2.381 1.962 5.463 2.914 8.509 3.208v5.925h6.289v-6.271c5.59-1.311 8.81-5.412 8.81-10.501 0-6.676-4.965-9.583-9.345-11.368-5.153-2.127-6.022-3.276-6.022-5.046z"></path></g><g id="XMLID_162_"><path id="XMLID_165_" d="m247.654 63.36c-5.154-2.128-6.023-3.277-6.023-5.047 0-1.642 1.185-3.396 4.509-3.396 2.908 0 5.23 1.091 7.677 2.488l2.353-6.203c-2.196-1.455-4.659-2.321-7.282-2.617v-5.454h-6.289v5.839c-4.891 1.256-8.398 5.083-8.398 10.006 0 6.073 4.78 8.791 9.954 10.818 4.752 1.924 5.396 3.694 5.396 5.321 0 2.428-2.106 4.06-5.231 4.06-3.296 0-6-1.336-8.667-3.112l-2.263 6.303c2.381 1.962 5.463 2.914 8.509 3.208v5.925h6.289v-6.271c5.59-1.311 8.81-5.412 8.81-10.501.001-6.675-4.964-9.582-9.344-11.367-5.153-2.128 4.38 1.785 0 0z"></path></g></g></svg>