<svg xmlns="http://www.w3.org/2000/svg" id="Layer_1" data-name="Layer 1" viewBox="0 0 64 64" width="32" height="32"><path d="M60.6,1.82H3.39A3.39,3.39,0,0,0,0,5.21v40.7A3.39,3.39,0,0,0,3.39,49.3H23v7.08l-3.68,1.74a.78.78,0,0,0-.45.7V61.4a.78.78,0,0,0,.78.78H44.33a.78.78,0,0,0,.78-.78V58.82a.75.75,0,0,0-.45-.7L41,56.38V49.3H60.6A3.4,3.4,0,0,0,64,45.91V5.21A3.4,3.4,0,0,0,60.6,1.82ZM39.42,56.39H24.57V49.3H39.42ZM30.05,44.45A2.56,2.56,0,1,1,32.6,47,2.56,2.56,0,0,1,30.05,44.45Zm32.39-4.56H1.56V5.21A1.83,1.83,0,0,1,3.39,3.38H60.6a1.83,1.83,0,0,1,1.84,1.83Z"/><path d="M34.19,44.45A1.59,1.59,0,1,0,32.6,46,1.59,1.59,0,0,0,34.19,44.45Z"/><path d="M55.14,6.51H8.85a.78.78,0,0,0,0,1.56H55.14a.78.78,0,1,0,0-1.56Z"/><path d="M55.14,35.43H8.85a.78.78,0,1,0,0,1.56H55.14a.78.78,0,0,0,0-1.56Z"/><path d="M9.5,15.19a.78.78,0,0,0-.78.78v7.76a4.37,4.37,0,0,0,8.74,0V16a.79.79,0,0,0-1.57,0v7.76a2.81,2.81,0,1,1-5.61,0V16A.78.78,0,0,0,9.5,15.19Z"/><path d="M20.54,27.56a.77.77,0,0,0,.39.46.85.85,0,0,0,.35.08.78.78,0,0,0,.7-.42l2.18-4.29,2.12,4.32a.76.76,0,0,0,.7.43.72.72,0,0,0,.35-.08.8.8,0,0,0,.39-.44.74.74,0,0,0,0-.6l-2.63-5.37,2.71-5.33a.77.77,0,0,0-.34-1.05.73.73,0,0,0-.35-.09.79.79,0,0,0-.7.43L24.19,19.9l-2.12-4.32a.79.79,0,0,0-.7-.44.85.85,0,0,0-.35.08.79.79,0,0,0-.39.45.74.74,0,0,0,0,.6l2.63,5.37L20.59,27A.76.76,0,0,0,20.54,27.56Z"/><path d="M42.67,15.19a.78.78,0,0,0-.78.78v7.76a4.37,4.37,0,0,0,8.74,0V16a.78.78,0,0,0-1.56,0v7.76a2.81,2.81,0,0,1-5.62,0V16A.78.78,0,0,0,42.67,15.19Z"/><path d="M32,32.17a.79.79,0,0,0,.73-.5L40,12.28a.78.78,0,0,0-.46-1,.81.81,0,0,0-.27,0,.78.78,0,0,0-.73.51L31.26,31.12a.78.78,0,0,0,.46,1A.66.66,0,0,0,32,32.17Z"/><path d="M55.38,27.32V16a.78.78,0,0,0-1.56,0V27.32a.78.78,0,0,0,1.56,0Z"/></svg>