<svg xmlns="http://www.w3.org/2000/svg" version="1.0" width="16" height="16" viewBox="0 0 9600.000000 9600.000000" preserveAspectRatio="xMidYMid meet">

<g transform="translate(0.000000,9600.000000) scale(0.100000,-0.100000)" fill="#000000" stroke="none">
<path d="M46975 95574 c-1164 -25 -2094 -71 -3120 -155 -6898 -559 -13571 -2604 -19579 -6001 -4127 -2333 -7886 -5268 -11156 -8708 -3615 -3805 -6571 -8168 -8758 -12925 -2452 -5336 -3882 -11092 -4222 -16995 -58 -1005 -75 -1631 -75 -2760 0 -961 7 -1290 41 -2070 326 -7543 2409 -14789 6139 -21355 2424 -4266 5559 -8199 9210 -11550 4686 -4302 10175 -7624 16140 -9767 3362 -1208 6875 -2038 10420 -2462 1466 -176 2776 -273 4415 -328 495 -17 2225 -17 2720 0 1221 41 2206 102 3254 202 6272 599 12333 2424 17881 5383 4562 2433 8704 5594 12255 9352 3589 3798 6505 8113 8678 12840 535 1164 1058 2442 1494 3650 1628 4512 2554 9215 2762 14035 34 780 41 1109 41 2070 0 961 -7 1290 -41 2070 -326 7543 -2409 14789 -6139 21355 -2424 4267 -5556 8194 -9210 11550 -5719 5252 -12630 9032 -20108 10999 -3495 920 -6966 1423 -10692 1551 -401 14 -1992 27 -2350 19z m-21620 -19652 c13 -5 20 -16 20 -31 0 -32 50 -50 170 -61 50 -5 131 -14 180 -20 50 -6 133 -14 185 -19 52 -5 115 -16 140 -25 25 -10 74 -20 110 -23 36 -3 99 -13 140 -24 41 -10 134 -23 207 -29 132 -10 254 -32 393 -71 41 -11 149 -35 240 -54 160 -32 217 -48 310 -85 25 -10 79 -25 120 -34 41 -9 95 -25 120 -35 25 -11 72 -30 105 -44 33 -14 96 -35 140 -47 44 -12 121 -41 170 -65 50 -23 123 -50 164 -59 41 -9 105 -33 145 -55 39 -21 100 -47 136 -57 36 -9 108 -37 160 -62 52 -24 135 -57 183 -73 49 -16 108 -43 131 -59 39 -28 150 -70 187 -70 9 0 47 -20 85 -45 59 -39 144 -75 177 -75 5 0 49 -22 96 -49 48 -27 107 -55 131 -61 23 -6 78 -34 121 -61 43 -27 99 -53 124 -59 49 -11 159 -61 185 -85 9 -8 45 -24 81 -36 78 -26 107 -40 147 -74 17 -15 59 -37 93 -50 34 -14 86 -43 116 -65 30 -23 78 -49 107 -59 30 -10 87 -38 128 -64 40 -25 94 -51 119 -57 27 -7 67 -29 95 -52 56 -46 105 -72 153 -83 18 -4 50 -22 70 -40 38 -34 118 -78 161 -88 14 -4 44 -22 66 -41 23 -19 66 -46 98 -60 31 -14 78 -43 105 -66 26 -22 71 -49 98 -59 28 -10 74 -36 104 -59 59 -43 127 -82 145 -82 7 0 32 -16 56 -36 23 -20 70 -49 103 -64 33 -16 83 -47 110 -70 28 -24 66 -49 85 -57 18 -8 53 -30 76 -49 23 -19 71 -49 105 -65 35 -17 81 -47 103 -66 21 -19 64 -46 95 -60 31 -14 75 -42 97 -63 23 -21 62 -49 86 -61 23 -12 66 -41 94 -65 28 -24 71 -51 95 -59 24 -9 60 -31 79 -49 19 -18 58 -48 85 -66 28 -19 70 -50 95 -70 25 -21 68 -49 95 -63 28 -14 61 -37 75 -52 14 -15 51 -42 83 -61 31 -18 85 -56 118 -84 33 -27 72 -56 87 -64 15 -8 40 -28 55 -44 16 -16 47 -38 70 -48 23 -10 65 -36 92 -59 28 -22 73 -57 100 -77 28 -20 61 -48 75 -63 14 -15 45 -41 70 -58 25 -16 59 -42 75 -58 17 -15 51 -40 77 -56 58 -35 208 -151 308 -238 41 -36 104 -87 139 -113 35 -26 88 -68 118 -94 29 -27 57 -48 62 -48 5 0 31 -19 57 -43 27 -24 66 -53 86 -65 20 -13 51 -39 68 -59 18 -20 58 -55 89 -78 31 -23 67 -55 81 -70 14 -15 57 -51 95 -80 39 -29 110 -89 159 -134 48 -45 92 -81 97 -81 9 0 175 -147 344 -304 50 -46 108 -99 130 -117 22 -19 123 -114 224 -212 102 -99 208 -196 235 -217 62 -47 1121 -1109 1196 -1200 30 -36 124 -138 209 -226 299 -310 436 -457 461 -495 14 -20 66 -81 115 -135 50 -53 106 -118 125 -144 45 -61 124 -154 215 -255 39 -44 99 -111 132 -150 33 -38 70 -79 83 -90 12 -11 39 -45 60 -75 21 -31 46 -62 56 -70 9 -8 37 -44 61 -80 53 -79 138 -188 185 -238 19 -20 50 -57 69 -82 18 -25 48 -61 66 -80 17 -19 45 -54 62 -77 16 -22 35 -44 41 -48 7 -4 36 -44 66 -89 30 -44 85 -121 124 -171 158 -203 217 -280 250 -331 38 -57 91 -127 187 -247 35 -43 63 -82 63 -87 0 -5 20 -34 44 -63 24 -30 51 -68 59 -84 9 -16 32 -49 52 -73 20 -24 55 -73 79 -109 24 -36 56 -77 71 -91 15 -14 38 -47 52 -74 14 -27 42 -71 64 -98 21 -28 39 -53 39 -58 0 -4 27 -43 61 -86 34 -44 69 -95 79 -115 10 -19 35 -55 55 -79 20 -24 46 -62 57 -84 11 -23 44 -73 73 -111 29 -39 60 -86 70 -105 10 -19 32 -53 50 -75 18 -22 40 -56 50 -75 9 -19 41 -67 70 -106 29 -39 64 -93 78 -120 14 -27 35 -58 47 -69 13 -11 33 -43 46 -71 12 -28 44 -80 71 -115 26 -35 57 -84 67 -109 11 -25 30 -56 42 -70 12 -14 46 -65 74 -115 28 -49 62 -101 75 -115 13 -14 33 -47 44 -73 12 -27 41 -74 65 -105 25 -32 54 -78 66 -104 11 -26 32 -61 46 -77 14 -17 40 -61 58 -98 19 -38 54 -96 80 -129 25 -34 49 -76 53 -94 3 -18 30 -64 59 -102 29 -39 61 -91 70 -117 9 -25 29 -62 44 -82 15 -19 45 -69 65 -110 21 -40 53 -93 72 -117 20 -24 44 -66 55 -94 11 -29 41 -83 68 -122 27 -39 53 -90 60 -113 6 -24 33 -72 59 -107 27 -35 57 -88 66 -118 10 -29 33 -71 51 -94 19 -22 50 -76 70 -120 20 -43 47 -93 60 -111 13 -17 33 -55 44 -85 11 -29 38 -78 60 -108 42 -57 54 -81 84 -163 10 -26 34 -71 53 -100 20 -29 44 -77 55 -107 10 -30 40 -82 65 -115 26 -33 56 -87 68 -120 11 -33 38 -87 59 -120 21 -33 47 -84 57 -114 11 -30 39 -87 64 -127 25 -40 51 -90 59 -111 8 -21 36 -73 64 -114 27 -40 57 -96 66 -124 9 -27 31 -72 50 -98 19 -27 47 -83 62 -125 15 -42 38 -90 51 -105 13 -16 42 -68 64 -115 23 -48 52 -98 65 -112 13 -14 41 -69 63 -122 22 -54 51 -112 65 -131 15 -19 41 -73 60 -119 18 -47 44 -101 58 -119 14 -19 43 -70 65 -114 22 -44 57 -104 77 -134 20 -29 36 -60 36 -70 0 -22 52 -129 84 -170 14 -19 35 -61 46 -95 11 -34 40 -88 65 -121 25 -33 49 -74 54 -92 5 -18 32 -70 60 -117 29 -47 58 -105 65 -131 8 -25 35 -79 60 -119 26 -41 53 -95 60 -121 8 -25 36 -79 63 -118 27 -40 57 -94 67 -120 10 -26 28 -60 41 -75 29 -35 71 -118 80 -160 3 -17 21 -54 40 -80 44 -64 70 -118 85 -172 7 -24 24 -58 38 -75 14 -16 43 -68 65 -115 21 -46 52 -99 67 -116 15 -18 42 -70 60 -116 17 -45 47 -105 65 -133 19 -27 48 -86 65 -130 18 -44 43 -95 57 -113 14 -19 43 -77 65 -130 22 -54 47 -106 57 -117 10 -11 42 -66 70 -121 28 -56 60 -109 71 -119 11 -10 29 -49 40 -87 12 -37 40 -96 64 -131 23 -34 51 -89 61 -122 11 -33 38 -88 62 -122 23 -34 46 -75 49 -90 12 -48 52 -133 82 -171 16 -20 41 -72 57 -116 15 -43 42 -97 60 -120 18 -24 38 -60 45 -82 19 -59 39 -94 80 -144 21 -25 44 -68 53 -95 8 -28 36 -85 62 -128 26 -43 53 -99 61 -123 7 -25 34 -79 60 -120 25 -40 52 -94 60 -120 7 -25 35 -79 60 -121 26 -41 55 -98 65 -127 9 -28 38 -85 63 -126 26 -41 51 -93 57 -114 6 -22 35 -79 64 -128 29 -49 57 -103 61 -121 3 -18 29 -69 56 -115 28 -45 56 -102 63 -125 7 -23 34 -78 60 -120 26 -43 53 -99 61 -123 7 -25 34 -78 59 -118 25 -40 53 -97 64 -127 10 -30 39 -87 65 -128 25 -41 48 -91 52 -110 9 -56 40 -128 79 -181 19 -26 35 -53 35 -59 0 -25 53 -138 81 -173 16 -21 41 -70 54 -110 14 -40 42 -98 64 -129 21 -30 46 -79 55 -109 16 -54 55 -129 86 -165 9 -11 30 -58 46 -105 16 -46 39 -98 51 -115 29 -38 36 -53 69 -148 15 -43 40 -94 55 -113 15 -20 44 -78 64 -129 20 -52 44 -100 53 -107 21 -18 69 -125 82 -185 6 -26 24 -66 39 -88 37 -52 67 -112 75 -151 4 -17 27 -62 52 -99 24 -38 54 -100 65 -139 12 -39 29 -82 39 -96 27 -38 60 -108 81 -168 10 -29 39 -86 64 -126 27 -43 49 -93 55 -124 10 -56 39 -119 77 -169 13 -17 37 -68 53 -113 16 -45 43 -103 59 -129 17 -26 42 -81 56 -122 14 -41 42 -98 61 -126 21 -30 46 -88 60 -134 14 -47 40 -105 64 -141 22 -33 50 -92 61 -130 12 -39 43 -109 69 -157 26 -47 50 -99 54 -115 4 -17 31 -80 60 -140 29 -61 61 -132 70 -159 10 -26 35 -73 56 -105 20 -31 41 -74 44 -96 9 -48 48 -138 76 -173 11 -14 33 -67 49 -117 18 -57 45 -116 74 -158 30 -44 50 -87 58 -125 14 -66 28 -96 75 -168 19 -28 38 -74 43 -102 11 -57 44 -128 85 -182 14 -19 26 -40 26 -46 0 -29 44 -148 66 -177 35 -49 62 -107 80 -179 9 -35 26 -77 39 -94 32 -43 71 -124 80 -165 4 -19 30 -75 57 -125 27 -49 53 -108 58 -132 11 -48 62 -157 85 -183 9 -9 29 -59 46 -111 16 -52 42 -112 58 -134 26 -38 63 -128 76 -188 3 -16 21 -51 40 -78 30 -44 75 -145 75 -169 0 -5 22 -51 49 -102 27 -51 54 -117 60 -146 12 -60 39 -116 75 -158 13 -16 29 -50 36 -74 20 -79 43 -134 73 -176 15 -23 42 -83 57 -134 16 -51 40 -107 53 -124 38 -49 67 -112 77 -167 6 -30 29 -81 56 -125 29 -46 51 -98 61 -138 8 -35 29 -88 48 -117 48 -76 61 -104 84 -185 11 -39 34 -87 50 -108 28 -35 71 -142 71 -176 0 -9 22 -51 49 -94 33 -51 55 -101 65 -142 9 -40 31 -92 60 -138 26 -42 50 -96 57 -127 13 -60 39 -117 76 -167 13 -18 38 -75 54 -127 16 -52 41 -107 55 -124 28 -33 67 -126 78 -185 4 -21 23 -60 43 -87 35 -49 73 -135 73 -165 0 -8 23 -57 51 -107 28 -51 57 -110 64 -132 20 -60 59 -149 78 -178 9 -15 31 -65 48 -111 17 -47 43 -104 59 -128 15 -24 40 -79 55 -123 15 -44 40 -98 56 -120 15 -22 42 -82 58 -134 17 -51 42 -108 56 -127 32 -41 85 -153 85 -177 0 -10 22 -58 49 -107 27 -49 55 -106 61 -127 7 -21 23 -62 36 -91 13 -29 24 -56 24 -60 0 -5 11 -23 24 -41 14 -19 28 -48 32 -65 9 -41 60 -144 90 -179 13 -16 24 -33 24 -39 0 -24 56 -147 86 -189 19 -26 34 -50 34 -54 0 -20 58 -147 86 -187 18 -27 35 -63 39 -80 12 -57 46 -142 70 -174 13 -17 41 -69 63 -115 21 -46 55 -103 75 -126 19 -24 39 -58 42 -75 10 -44 59 -143 89 -179 13 -16 27 -43 31 -61 9 -40 59 -142 91 -184 13 -17 24 -34 24 -38 0 -23 57 -148 86 -189 19 -26 43 -69 53 -97 10 -27 40 -79 66 -117 27 -37 53 -88 60 -113 7 -25 34 -79 60 -120 26 -41 54 -96 60 -122 7 -25 34 -76 60 -112 26 -37 56 -89 66 -117 11 -29 31 -66 44 -83 29 -38 85 -155 85 -177 0 -9 13 -34 30 -57 16 -22 50 -82 76 -134 25 -51 56 -104 69 -118 13 -14 38 -63 56 -110 17 -47 45 -102 61 -122 15 -21 42 -75 59 -120 17 -46 44 -99 58 -118 15 -19 49 -78 74 -131 55 -113 146 -219 187 -219 84 0 164 59 175 128 8 50 54 171 77 204 11 16 34 73 53 128 18 54 44 114 58 132 13 18 34 65 47 103 12 39 43 115 69 170 27 55 54 122 60 149 12 49 49 130 81 176 9 14 20 39 24 55 22 94 49 167 75 198 16 20 41 76 57 124 16 49 50 129 76 178 26 50 48 100 48 111 0 36 29 107 65 159 19 28 45 87 58 133 13 46 38 102 55 125 17 24 44 86 62 139 17 53 39 107 49 120 29 37 69 122 82 174 7 27 33 87 59 134 26 47 51 101 55 120 11 52 40 113 79 170 20 29 36 61 36 71 0 31 46 147 72 181 14 18 39 77 57 130 18 53 40 107 50 120 28 35 71 128 82 177 5 25 32 81 58 125 27 45 54 104 60 134 12 59 42 123 77 165 12 15 35 66 49 115 14 48 41 110 60 137 18 28 45 89 59 136 14 47 38 101 52 120 40 53 64 105 74 162 6 32 29 83 59 132 27 45 53 103 60 133 12 59 42 123 76 163 12 15 37 71 55 125 18 55 43 114 57 131 26 36 73 152 73 182 0 11 16 43 35 72 37 54 69 123 79 172 4 15 27 64 51 109 25 44 53 106 61 137 18 60 55 139 85 181 10 14 30 58 43 99 14 41 41 99 59 130 19 31 47 94 61 141 15 47 35 96 45 110 27 38 56 98 76 160 10 30 28 71 40 90 12 19 39 78 59 130 49 125 84 206 107 244 10 17 29 61 43 98 13 36 40 89 59 117 20 28 38 66 42 83 12 59 46 142 72 176 14 18 38 75 54 125 16 51 37 104 48 118 32 43 78 142 85 183 4 22 24 69 44 105 63 116 72 135 72 152 0 27 35 103 74 160 20 28 39 63 42 78 16 73 48 154 75 187 26 33 69 144 69 179 0 7 15 35 34 62 49 71 73 122 81 173 4 27 27 78 56 126 29 49 53 102 59 133 11 57 40 119 80 171 15 19 41 81 59 137 17 56 39 107 48 115 21 17 60 105 74 165 5 26 28 73 49 106 22 32 49 91 61 130 12 40 25 77 29 82 23 29 81 151 91 192 13 50 46 123 84 183 13 19 35 73 50 120 16 47 41 103 56 125 16 22 43 81 60 130 16 50 39 100 50 111 11 12 36 64 55 115 20 51 46 111 58 133 13 23 36 73 51 111 61 155 90 221 108 248 11 16 25 47 32 70 23 74 48 131 73 164 13 18 37 74 53 125 17 51 43 111 58 133 16 22 43 80 60 129 17 48 40 99 51 113 11 14 20 29 20 34 0 5 11 32 24 61 13 29 27 64 31 78 4 14 18 49 31 78 13 29 24 56 24 60 0 4 10 23 23 42 13 19 38 75 56 125 17 49 43 104 57 122 13 18 36 67 51 110 30 91 46 125 67 142 9 7 30 57 46 110 17 53 39 108 49 122 31 43 77 141 90 192 10 42 45 116 85 180 8 12 23 54 35 93 11 39 39 97 61 130 22 32 40 66 40 74 1 31 51 156 78 194 16 23 39 75 52 116 12 41 39 104 60 140 41 68 80 160 80 186 0 9 22 61 49 117 28 56 61 133 75 170 14 38 41 94 60 125 19 31 44 91 56 132 13 41 36 93 51 115 16 22 40 72 54 110 14 39 48 115 74 170 27 55 54 118 61 140 7 22 34 85 60 140 27 55 60 131 75 170 14 38 39 90 55 116 17 25 42 84 56 130 15 46 39 102 53 124 36 54 59 107 71 161 6 24 32 84 59 132 27 48 52 103 56 122 9 46 54 147 81 185 11 17 33 70 48 119 15 49 42 109 59 135 18 25 42 80 55 121 13 41 29 86 37 100 51 91 84 161 94 203 6 27 34 88 61 137 28 48 50 93 50 99 0 29 45 140 75 185 20 30 44 89 58 143 14 51 36 107 50 125 33 44 63 105 72 147 4 19 32 81 61 138 30 57 54 114 54 127 0 33 32 104 74 166 20 29 36 60 36 69 0 35 42 146 75 200 19 31 44 88 55 126 12 39 28 81 35 95 58 104 84 161 90 200 8 50 34 105 76 165 16 22 38 74 49 115 12 41 36 100 55 132 20 31 44 86 55 121 11 36 43 110 70 164 27 54 54 122 60 151 10 57 37 114 80 173 15 21 31 56 35 76 12 68 43 152 69 185 26 36 59 112 71 168 4 19 29 74 56 122 27 48 52 107 55 130 8 47 43 126 80 174 13 18 28 52 33 75 18 77 49 158 75 192 14 18 38 73 55 122 16 50 45 124 66 165 20 41 50 116 66 165 17 50 45 113 64 140 22 32 43 83 58 143 14 51 34 103 45 115 30 33 63 105 79 172 8 32 34 100 58 150 25 49 56 123 70 164 14 41 38 95 54 120 16 25 39 78 51 116 12 39 44 116 71 172 27 56 49 106 49 112 0 27 43 129 79 190 22 37 46 97 56 138 10 41 31 94 51 125 19 29 44 85 55 123 12 39 28 84 36 100 9 17 33 63 54 103 22 41 39 85 39 98 0 31 43 138 74 184 15 21 31 69 41 120 19 100 50 194 77 232 20 29 58 164 58 207 0 29 20 98 49 176 33 85 59 177 71 245 15 93 49 219 70 260 24 47 39 104 55 215 9 58 28 128 51 182 40 98 67 216 85 373 10 89 9 119 -5 198 -21 124 -51 177 -160 285 -94 93 -149 130 -206 141 -19 4 -75 27 -125 51 -72 36 -107 47 -175 55 -97 12 -174 29 -311 71 -52 16 -169 40 -260 54 -90 13 -198 36 -239 50 -122 42 -170 54 -273 70 -94 14 -261 59 -282 75 -17 13 -114 38 -215 55 -71 12 -109 24 -150 49 -30 18 -68 38 -85 45 -45 18 -84 55 -182 176 -115 142 -123 154 -123 185 1 48 36 107 82 136 24 15 68 51 98 79 30 29 89 75 130 104 l75 51 3586 0 c3938 0 3632 5 3739 -58 25 -14 59 -34 77 -43 17 -9 63 -44 102 -79 57 -50 75 -61 96 -58 20 4 26 1 31 -18 11 -44 -3 -72 -38 -76 -27 -3 -47 -21 -131 -121 -83 -99 -108 -123 -157 -146 -31 -15 -73 -40 -91 -54 -69 -52 -182 -65 -654 -77 -244 -6 -344 -12 -385 -23 -129 -36 -221 -56 -320 -71 -146 -23 -189 -34 -236 -61 -45 -26 -124 -57 -192 -75 -24 -6 -75 -32 -114 -57 -38 -25 -92 -51 -119 -58 -29 -8 -69 -30 -97 -53 -26 -21 -78 -59 -117 -84 -38 -25 -76 -53 -84 -62 -8 -10 -36 -28 -61 -41 -57 -29 -448 -425 -487 -493 -14 -26 -39 -60 -54 -77 -15 -16 -48 -64 -74 -105 -26 -41 -60 -88 -75 -105 -16 -16 -37 -53 -47 -80 -11 -28 -40 -81 -65 -118 -26 -37 -54 -88 -64 -114 -9 -27 -25 -57 -35 -68 -29 -34 -77 -128 -89 -175 -7 -25 -27 -64 -46 -87 -19 -23 -54 -84 -78 -135 -24 -51 -50 -99 -59 -106 -8 -7 -32 -56 -52 -108 -20 -52 -48 -108 -61 -124 -14 -16 -42 -73 -64 -126 -21 -53 -48 -106 -59 -118 -11 -12 -39 -67 -61 -121 -22 -54 -49 -108 -60 -120 -25 -26 -55 -96 -74 -169 -9 -31 -33 -84 -55 -117 -22 -33 -48 -86 -58 -117 -10 -31 -36 -85 -59 -119 -23 -33 -47 -78 -54 -100 -7 -21 -34 -84 -61 -141 -28 -56 -56 -122 -63 -147 -8 -24 -36 -82 -64 -127 -28 -47 -54 -106 -61 -136 -12 -59 -42 -123 -77 -165 -13 -15 -37 -71 -54 -124 -17 -53 -44 -114 -60 -137 -29 -40 -70 -143 -70 -176 0 -9 -19 -45 -41 -80 -37 -56 -79 -152 -79 -180 0 -5 -22 -49 -48 -97 -27 -49 -54 -110 -61 -137 -12 -50 -46 -124 -86 -186 -13 -19 -35 -75 -50 -124 -16 -48 -38 -100 -51 -115 -24 -28 -54 -101 -74 -180 -7 -25 -22 -58 -35 -75 -35 -48 -65 -112 -75 -164 -5 -26 -30 -83 -57 -127 -30 -50 -53 -102 -61 -140 -8 -39 -28 -84 -57 -130 -25 -38 -48 -85 -51 -105 -10 -53 -43 -131 -71 -168 -14 -18 -36 -67 -49 -108 -13 -41 -48 -125 -77 -187 -30 -61 -57 -125 -61 -141 -4 -16 -31 -79 -61 -140 -29 -61 -63 -138 -74 -171 -12 -33 -35 -78 -50 -100 -26 -37 -59 -125 -76 -200 -4 -16 -24 -56 -46 -89 -22 -32 -46 -84 -54 -115 -9 -31 -22 -67 -30 -81 -54 -94 -84 -163 -94 -211 -7 -31 -27 -81 -46 -110 -46 -73 -60 -102 -85 -184 -12 -38 -35 -90 -50 -115 -16 -25 -41 -82 -55 -128 -15 -45 -39 -99 -53 -120 -31 -46 -67 -125 -82 -183 -6 -24 -33 -89 -59 -144 -27 -55 -60 -132 -75 -171 -15 -39 -38 -86 -51 -104 -23 -32 -57 -121 -70 -185 -3 -17 -24 -58 -46 -90 -22 -33 -49 -91 -61 -130 -11 -38 -41 -105 -65 -148 -24 -42 -48 -100 -53 -127 -10 -55 -51 -140 -85 -182 -13 -15 -26 -42 -30 -60 -13 -61 -49 -153 -70 -179 -12 -15 -34 -67 -50 -115 -15 -49 -37 -105 -50 -125 -40 -62 -82 -153 -89 -191 -7 -39 -60 -163 -80 -188 -7 -8 -27 -55 -45 -105 -19 -49 -46 -108 -62 -130 -16 -22 -40 -83 -55 -135 -15 -52 -37 -110 -51 -127 -29 -40 -73 -132 -73 -154 0 -9 -23 -61 -51 -114 -28 -54 -58 -125 -66 -159 -14 -60 -49 -132 -83 -171 -10 -11 -28 -57 -41 -103 -12 -46 -37 -106 -56 -134 -18 -29 -42 -81 -54 -117 -11 -36 -45 -115 -74 -176 -29 -60 -57 -123 -61 -140 -4 -16 -30 -79 -59 -140 -29 -60 -63 -141 -75 -180 -13 -38 -34 -84 -47 -102 -29 -40 -61 -113 -74 -171 -5 -25 -28 -72 -49 -105 -37 -55 -70 -139 -70 -177 0 -9 -23 -53 -50 -97 -30 -49 -54 -102 -60 -132 -10 -55 -39 -118 -76 -166 -12 -16 -28 -52 -35 -80 -16 -65 -44 -131 -74 -175 -13 -19 -35 -69 -48 -110 -14 -41 -43 -111 -66 -155 -23 -44 -48 -100 -57 -125 -36 -99 -77 -195 -99 -229 -13 -20 -33 -70 -45 -111 -13 -41 -37 -100 -56 -130 -18 -30 -44 -94 -59 -141 -14 -47 -34 -94 -44 -103 -28 -25 -70 -115 -81 -173 -5 -29 -28 -85 -51 -125 -23 -40 -52 -106 -65 -146 -13 -40 -42 -101 -64 -135 -22 -33 -40 -67 -40 -73 0 -32 -53 -173 -79 -212 -16 -23 -43 -82 -61 -130 -17 -48 -37 -94 -44 -102 -7 -8 -27 -51 -43 -95 -17 -44 -43 -111 -58 -149 -14 -38 -39 -87 -54 -110 -15 -23 -40 -80 -55 -128 -15 -48 -41 -107 -57 -131 -16 -25 -41 -82 -54 -128 -14 -46 -34 -95 -44 -109 -30 -42 -58 -102 -76 -165 -18 -62 -54 -141 -85 -185 -10 -14 -29 -64 -43 -111 -15 -47 -40 -105 -57 -130 -16 -24 -44 -87 -61 -139 -18 -52 -42 -109 -55 -125 -28 -37 -57 -104 -73 -170 -7 -27 -19 -60 -26 -72 -39 -59 -79 -143 -91 -190 -14 -56 -67 -167 -83 -177 -5 -4 -23 -50 -40 -104 -16 -53 -41 -112 -55 -131 -14 -19 -40 -77 -57 -130 -17 -53 -41 -109 -54 -126 -28 -38 -71 -133 -80 -176 -4 -19 -18 -58 -31 -87 -13 -29 -24 -55 -24 -58 0 -3 -9 -18 -20 -34 -11 -15 -34 -68 -51 -116 -17 -49 -41 -102 -53 -119 -35 -46 -43 -66 -66 -153 -14 -52 -35 -102 -60 -139 -21 -32 -46 -83 -55 -113 -9 -30 -38 -98 -65 -150 -27 -52 -52 -113 -56 -135 -10 -56 -31 -102 -69 -156 -19 -26 -45 -85 -60 -135 -15 -49 -38 -104 -52 -122 -13 -18 -40 -78 -58 -132 -19 -55 -43 -113 -54 -129 -29 -41 -81 -152 -81 -174 0 -22 -66 -176 -85 -197 -7 -8 -17 -31 -23 -50 -18 -65 -53 -143 -82 -184 -16 -24 -39 -80 -54 -133 -13 -51 -35 -107 -49 -125 -33 -44 -63 -105 -72 -148 -4 -19 -29 -76 -56 -125 -26 -50 -53 -115 -60 -145 -13 -60 -39 -118 -76 -166 -13 -17 -36 -73 -52 -123 -16 -51 -41 -109 -55 -129 -14 -21 -39 -78 -56 -127 -17 -49 -41 -106 -55 -127 -32 -48 -71 -136 -80 -179 -4 -19 -31 -84 -61 -145 -30 -61 -54 -115 -54 -121 0 -17 -50 -124 -71 -155 -11 -15 -36 -74 -55 -130 -18 -56 -43 -111 -53 -122 -21 -23 -71 -140 -71 -166 0 -16 -7 -30 -71 -150 -20 -36 -41 -87 -48 -114 -13 -52 -54 -140 -78 -167 -7 -9 -27 -54 -43 -100 -17 -46 -45 -108 -64 -139 -19 -30 -46 -93 -60 -140 -15 -47 -39 -103 -55 -125 -15 -22 -42 -80 -61 -130 -18 -49 -41 -101 -52 -114 -10 -13 -18 -27 -18 -32 0 -5 -11 -32 -24 -61 -13 -29 -27 -64 -31 -78 -12 -41 -66 -163 -85 -190 -9 -14 -30 -63 -46 -109 -16 -47 -41 -102 -57 -123 -15 -22 -41 -77 -56 -123 -16 -46 -43 -103 -59 -127 -17 -24 -42 -81 -57 -128 -14 -47 -34 -96 -44 -110 -31 -43 -68 -123 -86 -183 -9 -32 -36 -92 -59 -135 -24 -42 -52 -108 -64 -147 -12 -38 -40 -97 -62 -130 -22 -33 -40 -65 -40 -71 0 -28 -44 -147 -65 -176 -41 -56 -54 -83 -75 -159 -11 -41 -33 -92 -49 -114 -43 -60 -68 -115 -76 -165 -4 -27 -27 -78 -56 -127 -29 -48 -53 -103 -59 -133 -11 -56 -41 -121 -76 -163 -13 -16 -27 -41 -30 -55 -15 -70 -48 -155 -74 -194 -16 -24 -44 -86 -61 -138 -17 -52 -40 -104 -50 -115 -20 -23 -72 -136 -83 -180 -10 -44 -57 -156 -78 -187 -10 -14 -33 -68 -52 -120 -18 -51 -42 -115 -54 -143 -31 -77 -41 -113 -52 -197 -18 -125 13 -337 55 -388 7 -8 26 -42 43 -75 16 -33 51 -87 77 -120 26 -33 56 -78 67 -100 12 -22 35 -58 53 -80 18 -22 44 -62 58 -90 14 -27 44 -72 67 -100 23 -27 53 -71 66 -97 13 -26 37 -62 52 -80 16 -18 39 -51 52 -73 14 -22 46 -67 73 -100 27 -33 59 -81 72 -106 13 -25 38 -64 57 -86 18 -23 45 -63 61 -89 25 -45 98 -154 164 -248 16 -21 44 -65 63 -98 19 -32 55 -84 80 -116 25 -31 57 -75 70 -97 13 -22 36 -55 52 -73 15 -18 38 -52 49 -75 12 -23 47 -77 78 -119 31 -42 73 -103 94 -135 63 -98 81 -123 123 -176 22 -29 57 -79 78 -112 21 -33 53 -78 71 -100 18 -22 42 -60 55 -85 12 -25 35 -60 51 -77 16 -18 45 -59 65 -90 20 -32 53 -78 74 -103 20 -25 45 -59 53 -77 9 -17 35 -52 57 -78 22 -26 48 -63 58 -83 10 -20 47 -76 82 -124 100 -133 123 -166 156 -224 16 -30 44 -69 61 -86 16 -18 50 -62 73 -98 24 -36 57 -81 73 -100 28 -34 40 -51 143 -205 26 -38 63 -90 84 -115 20 -25 50 -65 65 -90 16 -25 45 -65 65 -90 20 -25 43 -61 52 -80 9 -19 33 -55 55 -80 47 -55 146 -184 190 -248 18 -26 49 -67 68 -92 20 -25 51 -66 68 -92 43 -62 112 -150 167 -212 25 -28 65 -76 88 -106 211 -274 414 -508 670 -771 89 -92 162 -173 162 -180 0 -18 805 -824 860 -861 25 -17 122 -106 216 -197 94 -91 215 -205 270 -253 54 -48 145 -129 202 -180 56 -51 123 -107 149 -125 25 -18 65 -49 87 -71 23 -21 53 -47 67 -58 38 -28 291 -239 366 -306 36 -32 69 -58 74 -58 6 0 32 -21 60 -47 28 -26 70 -61 94 -78 76 -51 229 -171 244 -189 8 -10 35 -32 60 -49 25 -17 66 -48 91 -70 25 -21 61 -47 80 -57 19 -10 53 -35 75 -55 22 -20 58 -45 79 -57 21 -11 60 -39 85 -63 25 -23 72 -59 104 -79 31 -20 72 -49 90 -65 17 -16 48 -35 67 -43 20 -8 56 -33 82 -55 26 -23 71 -55 100 -71 29 -17 74 -49 101 -71 26 -22 64 -45 85 -51 20 -7 53 -27 72 -45 19 -18 67 -52 105 -75 39 -24 87 -58 107 -76 21 -18 50 -36 65 -40 43 -10 80 -32 122 -70 21 -18 65 -46 97 -60 33 -14 70 -36 84 -49 14 -13 68 -45 120 -70 52 -26 108 -58 124 -72 16 -14 53 -35 80 -47 28 -13 83 -43 121 -68 39 -25 91 -52 118 -61 26 -9 66 -31 90 -50 50 -41 88 -61 142 -76 22 -6 63 -28 92 -50 29 -21 86 -50 127 -64 41 -14 96 -41 121 -61 26 -19 76 -45 113 -56 37 -12 83 -33 104 -46 33 -21 207 -94 225 -94 5 0 43 -20 86 -45 42 -24 115 -55 160 -69 46 -14 104 -41 131 -60 31 -22 75 -41 120 -51 39 -10 116 -39 171 -65 55 -27 124 -53 153 -59 65 -13 116 -34 163 -67 20 -13 76 -35 125 -49 49 -13 134 -43 189 -65 55 -23 136 -50 181 -61 75 -17 203 -63 265 -95 15 -7 77 -22 138 -33 76 -13 131 -30 174 -51 59 -30 161 -60 257 -75 25 -4 72 -17 105 -30 100 -39 213 -75 303 -96 47 -11 96 -26 111 -34 45 -25 132 -56 241 -84 58 -16 143 -45 190 -65 47 -20 125 -46 174 -56 60 -13 107 -30 145 -53 59 -37 138 -67 172 -67 38 0 125 -30 171 -59 44 -28 102 -50 191 -70 26 -6 89 -31 140 -55 50 -24 114 -51 141 -61 26 -10 72 -37 101 -60 28 -23 62 -48 74 -55 13 -6 50 -35 82 -63 131 -116 166 -145 209 -172 76 -47 90 -64 90 -110 0 -47 -25 -87 -69 -109 -15 -8 -75 -24 -133 -35 -102 -20 -179 -44 -205 -64 -19 -14 -16 -45 5 -49 9 -3 -113 -8 -271 -12 -287 -8 -878 1 -859 13 5 3 12 15 14 26 2 17 -8 24 -67 43 -38 12 -119 29 -180 36 -107 14 -155 27 -283 81 -35 14 -107 33 -160 42 -53 8 -113 22 -132 30 -83 35 -215 73 -340 99 -95 19 -159 38 -216 65 -52 25 -106 42 -155 49 -88 13 -145 27 -179 46 -50 27 -157 64 -244 84 -49 11 -100 27 -115 35 -43 24 -181 72 -266 93 -44 10 -118 36 -165 56 -47 20 -127 46 -179 57 -52 11 -106 28 -120 38 -50 35 -130 71 -173 77 -70 10 -109 24 -178 64 -37 21 -97 45 -140 55 -41 10 -118 38 -170 63 -52 25 -136 57 -185 72 -53 15 -112 41 -142 62 -29 20 -76 41 -105 48 -29 7 -102 36 -163 65 -60 29 -126 58 -145 63 -52 16 -139 54 -190 84 -25 15 -58 30 -75 34 -44 10 -132 50 -161 73 -14 11 -66 34 -117 50 -54 19 -109 45 -134 65 -23 18 -77 46 -120 61 -43 16 -97 41 -119 57 -23 16 -82 42 -131 58 -55 17 -107 41 -135 62 -25 19 -76 47 -114 62 -38 15 -80 38 -94 51 -39 35 -69 52 -147 79 -40 13 -93 41 -119 60 -26 20 -51 36 -57 36 -22 0 -135 56 -173 86 -23 18 -77 47 -120 64 -44 18 -97 46 -119 64 -22 18 -62 43 -89 55 -27 12 -78 40 -114 62 -35 22 -84 49 -109 60 -24 10 -65 36 -91 57 -26 21 -73 50 -105 63 -31 13 -81 43 -110 67 -28 23 -57 42 -63 42 -17 0 -102 47 -142 80 -20 16 -59 39 -87 51 -27 12 -69 37 -91 55 -23 18 -68 48 -100 66 -32 17 -82 51 -111 74 -29 24 -70 48 -91 53 -21 6 -67 34 -101 61 -35 28 -85 62 -112 75 -26 14 -63 38 -81 54 -18 15 -53 39 -78 51 -25 12 -65 39 -90 60 -25 20 -72 55 -105 77 -33 23 -71 52 -84 67 -13 14 -45 32 -71 41 -26 9 -56 25 -66 37 -11 11 -48 41 -84 66 -36 26 -89 66 -119 90 -30 24 -68 50 -85 59 -17 9 -49 33 -72 53 -23 21 -61 47 -85 57 -24 11 -66 40 -94 65 -27 24 -70 58 -95 75 -25 17 -53 40 -64 51 -10 12 -47 40 -81 62 -35 23 -66 48 -69 55 -3 8 -30 28 -60 45 -30 17 -83 56 -118 86 -35 30 -88 77 -118 103 -30 26 -74 60 -98 75 -23 14 -67 49 -97 76 -30 28 -59 50 -64 50 -5 0 -33 22 -63 48 -29 27 -73 62 -98 79 -25 17 -56 43 -70 58 -14 15 -68 62 -120 105 -52 43 -113 97 -135 120 -22 23 -60 56 -85 73 -25 17 -95 77 -156 133 -62 56 -125 109 -140 117 -16 9 -69 57 -119 107 -49 51 -115 109 -145 130 -30 21 -147 131 -260 245 -113 114 -223 220 -245 237 -55 40 -627 610 -680 678 -24 30 -138 150 -255 265 -116 116 -218 223 -227 240 -9 16 -64 79 -123 140 -58 60 -117 126 -130 145 -13 19 -63 78 -110 130 -47 52 -99 113 -115 135 -16 22 -67 81 -114 131 -124 130 -232 253 -266 299 -16 22 -42 54 -58 71 -15 17 -43 52 -60 77 -18 24 -99 125 -182 222 -188 222 -219 260 -275 331 -25 31 -68 84 -95 118 -28 34 -65 81 -83 106 -54 75 -132 172 -239 299 -56 66 -107 130 -114 143 -6 13 -28 43 -48 67 -20 24 -54 67 -76 97 -93 124 -131 172 -175 224 -25 30 -57 73 -70 95 -13 22 -40 58 -59 80 -20 23 -52 63 -71 89 -65 89 -105 141 -161 211 -31 39 -73 95 -93 125 -74 111 -105 156 -129 185 -13 17 -46 59 -72 95 -27 36 -66 84 -86 107 -21 22 -48 61 -60 84 -12 24 -39 64 -59 89 -21 25 -43 56 -50 69 -15 29 -151 211 -196 262 -17 20 -44 61 -59 90 -14 30 -37 65 -49 79 -13 14 -32 39 -42 55 -10 17 -43 64 -74 105 -31 41 -72 100 -92 130 -19 30 -43 61 -52 69 -10 8 -28 36 -41 62 -14 26 -47 77 -75 114 -28 37 -61 88 -74 113 -13 26 -34 56 -46 67 -12 11 -34 40 -48 65 -14 25 -47 72 -74 104 -26 33 -61 85 -77 117 -17 31 -38 62 -47 70 -8 7 -26 33 -39 58 -13 25 -44 73 -69 106 -26 33 -58 85 -73 115 -15 30 -42 72 -61 94 -19 21 -41 54 -49 73 -8 19 -38 67 -67 107 -30 39 -63 89 -74 111 -12 22 -33 54 -47 70 -15 17 -40 57 -57 90 -17 33 -49 85 -73 115 -23 30 -52 77 -63 104 -12 26 -35 64 -52 83 -17 18 -43 60 -59 92 -16 32 -46 79 -67 106 -20 27 -46 69 -57 94 -11 25 -38 68 -59 95 -22 28 -55 80 -73 116 -18 36 -41 73 -51 81 -9 8 -29 41 -44 74 -15 34 -49 88 -75 120 -27 32 -57 82 -68 109 -10 28 -31 67 -45 86 -40 51 -79 114 -86 138 -4 12 -22 43 -40 69 -18 27 -48 78 -65 113 -18 36 -50 89 -72 118 -22 29 -47 72 -55 95 -8 23 -37 74 -64 113 -27 39 -57 93 -68 120 -10 28 -37 73 -59 101 -22 28 -52 82 -67 120 -15 37 -38 79 -51 93 -13 14 -41 61 -63 106 -22 44 -52 95 -67 112 -14 17 -37 59 -50 93 -14 34 -31 69 -38 78 -22 26 -87 138 -87 149 0 5 -16 34 -36 63 -39 57 -94 166 -94 186 0 6 -16 32 -35 57 -35 46 -71 113 -95 176 -7 19 -25 51 -40 71 -15 19 -42 71 -59 115 -18 43 -45 95 -61 115 -15 20 -49 80 -75 135 -25 54 -54 108 -65 119 -11 12 -28 46 -39 76 -23 67 -61 143 -95 188 -14 19 -26 42 -26 51 0 22 -62 148 -94 189 -14 19 -26 42 -26 50 0 23 -57 140 -87 180 -14 18 -31 52 -38 75 -21 66 -52 130 -84 170 -16 20 -33 51 -36 69 -9 40 -56 136 -88 179 -13 18 -34 62 -46 98 -13 36 -42 95 -67 131 -24 36 -44 71 -44 78 0 24 -44 116 -77 164 -20 28 -45 85 -59 135 -14 49 -39 105 -58 131 -18 25 -45 80 -61 121 -15 41 -41 93 -56 115 -15 22 -41 82 -58 133 -16 51 -40 107 -54 125 -33 44 -73 125 -82 167 -4 19 -29 75 -56 124 -27 48 -54 106 -60 128 -6 23 -32 79 -58 127 -26 47 -53 109 -60 136 -13 52 -50 125 -82 161 -10 11 -32 62 -49 114 -17 52 -42 111 -55 130 -14 20 -40 74 -59 121 -19 46 -50 107 -69 136 -19 28 -43 85 -55 129 -12 44 -31 90 -42 104 -25 31 -90 159 -90 179 0 7 -13 37 -29 65 -16 28 -44 87 -61 131 -36 95 -52 126 -85 180 -36 56 -55 100 -55 127 -1 31 -33 101 -73 157 -19 25 -44 79 -57 120 -13 41 -38 96 -56 122 -18 27 -40 72 -50 101 -22 70 -58 145 -88 185 -13 18 -34 70 -46 115 -13 48 -33 95 -48 113 -28 34 -82 142 -82 166 0 8 -14 37 -32 65 -38 61 -73 138 -83 184 -3 19 -31 76 -60 125 -29 50 -58 113 -64 140 -7 28 -27 77 -46 110 -46 81 -60 112 -80 168 -9 26 -33 71 -52 100 -20 29 -42 76 -50 106 -17 65 -57 156 -72 165 -19 12 -49 79 -70 155 -11 40 -37 98 -59 130 -21 32 -46 84 -57 117 -10 32 -30 77 -44 99 -33 50 -67 126 -81 183 -6 24 -32 76 -57 115 -25 40 -53 97 -60 126 -16 60 -48 128 -88 187 -14 20 -25 44 -25 53 0 22 -54 135 -84 174 -14 18 -30 54 -35 79 -16 72 -41 129 -72 169 -33 43 -54 91 -75 171 -8 33 -29 78 -45 101 -34 46 -54 88 -75 159 -8 26 -19 50 -25 53 -16 11 -78 141 -89 190 -6 25 -32 81 -59 124 -27 44 -54 96 -61 118 -6 21 -20 57 -31 80 -10 24 -19 46 -19 51 0 4 -11 23 -24 42 -12 19 -29 53 -36 75 -17 53 -57 133 -86 171 -13 18 -28 52 -33 75 -17 76 -40 130 -75 178 -19 25 -47 84 -64 131 -16 47 -44 108 -61 136 -18 28 -43 84 -57 124 -13 41 -35 88 -48 105 -37 48 -73 126 -81 175 -4 27 -26 75 -55 122 -27 42 -56 100 -64 127 -8 28 -37 97 -64 153 -28 57 -58 125 -68 153 -10 27 -33 69 -52 93 -21 28 -42 75 -58 130 -14 50 -40 109 -59 137 -19 28 -50 92 -69 143 -19 52 -41 101 -49 110 -7 10 -26 38 -41 64 -29 52 -51 68 -90 68 -29 0 -50 -32 -62 -95 -10 -54 -31 -103 -61 -143 -14 -18 -40 -71 -58 -117 -18 -46 -49 -106 -68 -132 -19 -26 -42 -74 -51 -105 -9 -31 -36 -87 -61 -124 -25 -37 -51 -88 -59 -114 -17 -59 -48 -119 -79 -156 -13 -16 -34 -59 -46 -97 -13 -37 -40 -93 -61 -125 -22 -32 -44 -79 -49 -104 -14 -60 -45 -132 -76 -172 -14 -18 -41 -72 -59 -120 -19 -48 -46 -102 -60 -121 -26 -34 -59 -114 -71 -171 -3 -17 -26 -62 -50 -98 -44 -68 -58 -102 -69 -167 -4 -19 -28 -70 -55 -112 -32 -50 -51 -94 -56 -125 -8 -52 -31 -102 -81 -175 -19 -27 -34 -55 -34 -62 0 -29 -43 -142 -70 -184 -16 -25 -41 -83 -55 -129 -15 -45 -39 -99 -53 -120 -30 -44 -82 -164 -82 -188 0 -10 -24 -63 -54 -119 -29 -56 -57 -117 -61 -136 -10 -46 -50 -134 -75 -166 -11 -14 -34 -69 -50 -121 -16 -52 -41 -109 -54 -127 -28 -36 -59 -109 -71 -165 -4 -19 -30 -75 -57 -124 -27 -50 -54 -110 -60 -135 -12 -49 -61 -156 -84 -182 -8 -9 -29 -60 -48 -115 -18 -54 -45 -116 -59 -137 -25 -37 -45 -88 -67 -174 -6 -23 -21 -55 -34 -70 -35 -42 -73 -122 -81 -173 -4 -24 -29 -84 -56 -132 -27 -49 -49 -93 -49 -98 0 -28 -42 -124 -79 -180 -22 -35 -41 -71 -41 -80 0 -32 -41 -135 -69 -175 -15 -22 -38 -71 -51 -110 -12 -38 -46 -119 -75 -180 -29 -60 -58 -128 -65 -150 -7 -22 -36 -89 -65 -150 -29 -60 -61 -135 -70 -165 -9 -30 -34 -84 -55 -120 -22 -36 -48 -98 -59 -139 -11 -40 -32 -89 -46 -107 -30 -39 -69 -125 -78 -169 -3 -16 -26 -66 -51 -109 -25 -44 -50 -104 -57 -135 -12 -62 -38 -118 -76 -169 -13 -18 -37 -74 -53 -125 -16 -51 -40 -107 -54 -126 -14 -19 -40 -77 -57 -130 -18 -53 -42 -109 -54 -126 -27 -36 -62 -113 -80 -175 -18 -60 -55 -147 -82 -190 -12 -19 -25 -48 -29 -65 -11 -44 -52 -135 -79 -175 -24 -34 -65 -149 -65 -181 0 -10 -16 -40 -35 -69 -40 -59 -70 -123 -80 -171 -4 -19 -29 -73 -55 -120 -26 -47 -52 -107 -59 -134 -13 -50 -51 -132 -82 -177 -11 -14 -30 -65 -44 -112 -14 -50 -40 -108 -59 -137 -19 -27 -37 -57 -40 -67 -36 -127 -48 -162 -57 -167 -16 -10 -75 -137 -88 -189 -6 -26 -31 -83 -55 -125 -23 -42 -55 -115 -70 -164 -16 -48 -42 -105 -57 -127 -16 -22 -43 -82 -59 -132 -16 -50 -41 -108 -54 -127 -32 -46 -60 -112 -75 -179 -7 -28 -17 -55 -22 -58 -15 -9 -85 -156 -92 -192 -8 -40 -52 -138 -77 -169 -10 -13 -32 -68 -49 -122 -18 -58 -43 -113 -60 -135 -16 -20 -39 -69 -51 -109 -11 -40 -30 -90 -42 -112 -57 -105 -87 -172 -88 -192 0 -18 -50 -125 -97 -208 -7 -11 -21 -51 -32 -90 -11 -38 -36 -94 -55 -123 -19 -29 -46 -92 -61 -140 -15 -48 -37 -100 -49 -117 -29 -38 -64 -118 -77 -173 -5 -23 -31 -82 -58 -130 -26 -48 -54 -109 -60 -136 -12 -51 -64 -160 -80 -170 -5 -4 -24 -52 -41 -108 -18 -57 -44 -119 -59 -138 -27 -34 -63 -123 -76 -187 -3 -18 -20 -49 -37 -70 -38 -47 -65 -107 -77 -170 -5 -26 -30 -85 -55 -129 -24 -45 -50 -101 -56 -125 -15 -54 -55 -135 -85 -171 -13 -15 -26 -46 -30 -70 -11 -64 -42 -148 -69 -182 -12 -17 -38 -71 -57 -121 -18 -49 -41 -101 -50 -115 -21 -31 -58 -122 -89 -218 -12 -41 -40 -100 -60 -131 -21 -32 -49 -95 -63 -140 -15 -45 -42 -107 -61 -139 -20 -31 -43 -86 -51 -122 -9 -36 -29 -83 -44 -105 -43 -61 -70 -119 -82 -177 -11 -51 -44 -126 -79 -178 -10 -14 -27 -57 -38 -96 -12 -39 -39 -98 -61 -130 -22 -33 -42 -73 -46 -89 -16 -72 -50 -162 -71 -190 -12 -17 -37 -66 -54 -110 -18 -44 -53 -125 -80 -180 -26 -55 -53 -122 -59 -149 -13 -54 -27 -83 -76 -166 -21 -33 -40 -86 -51 -135 -9 -44 -23 -91 -30 -105 -18 -33 -84 -207 -84 -220 0 -17 -50 -113 -71 -135 -10 -11 -29 -46 -43 -77 -14 -31 -38 -71 -53 -90 -16 -18 -45 -55 -65 -83 -20 -27 -97 -110 -170 -182 -116 -115 -145 -137 -210 -168 -92 -42 -134 -44 -222 -11 -105 40 -219 124 -251 186 -8 15 -41 59 -74 99 -34 40 -69 92 -80 117 -11 24 -31 59 -45 77 -25 33 -65 136 -66 168 0 10 -16 41 -36 70 -52 78 -73 121 -80 171 -3 23 -28 84 -54 135 -27 50 -54 111 -60 135 -13 47 -58 145 -89 193 -11 17 -29 68 -41 114 -14 54 -34 100 -56 131 -40 56 -59 100 -69 159 -4 26 -27 75 -56 120 -30 47 -51 93 -55 121 -7 49 -43 127 -80 176 -12 17 -26 44 -30 60 -19 87 -48 164 -74 201 -17 23 -43 81 -59 130 -16 48 -49 126 -74 173 -24 47 -50 110 -56 142 -7 33 -29 83 -56 125 -25 39 -50 95 -59 133 -9 36 -27 85 -41 110 -57 108 -83 168 -90 210 -4 25 -22 72 -40 105 -59 109 -64 119 -86 194 -12 40 -37 95 -55 121 -20 29 -44 86 -59 142 -15 51 -39 111 -54 133 -42 60 -60 99 -72 157 -11 53 -46 130 -79 178 -10 14 -29 64 -44 111 -14 48 -41 109 -60 137 -22 31 -44 84 -60 142 -15 54 -36 107 -52 128 -32 41 -73 137 -74 170 0 23 -48 127 -80 172 -10 14 -21 41 -25 60 -11 53 -52 150 -81 192 -14 20 -38 79 -53 130 -15 51 -43 118 -63 148 -38 60 -53 97 -63 150 -4 19 -31 82 -61 139 -30 57 -54 112 -54 122 0 24 -45 125 -75 169 -13 19 -36 78 -51 130 -16 54 -40 112 -56 135 -36 49 -57 96 -68 155 -5 25 -27 79 -50 120 -23 41 -53 109 -66 150 -14 41 -41 99 -61 128 -20 30 -44 83 -55 125 -20 75 -41 124 -82 191 -14 22 -32 64 -41 95 -9 31 -41 104 -71 164 -30 59 -54 120 -54 135 0 32 -37 113 -74 161 -14 19 -38 73 -52 120 -14 47 -41 109 -60 137 -19 28 -45 88 -59 134 -14 46 -36 100 -49 120 -30 42 -76 146 -76 169 0 19 -53 133 -79 170 -10 14 -28 58 -40 98 -12 39 -39 97 -60 130 -22 32 -44 78 -51 103 -17 69 -39 120 -71 171 -16 25 -41 84 -55 130 -15 46 -39 102 -54 124 -32 46 -80 156 -80 181 0 10 -24 63 -54 119 -29 56 -57 117 -61 136 -9 43 -51 126 -80 161 -13 15 -28 50 -34 78 -14 63 -34 112 -70 170 -16 25 -41 83 -56 130 -15 47 -36 96 -45 110 -31 45 -77 144 -89 193 -6 26 -32 79 -56 118 -26 40 -50 92 -56 122 -13 57 -59 156 -83 176 -8 7 -29 58 -46 114 -19 59 -44 117 -60 137 -16 20 -41 78 -60 137 -17 56 -38 107 -46 114 -21 17 -69 114 -84 168 -6 24 -31 79 -56 123 -24 44 -48 99 -54 122 -14 54 -48 131 -80 181 -15 22 -39 76 -54 120 -15 44 -40 98 -56 120 -15 22 -41 80 -58 129 -17 48 -43 104 -57 122 -15 19 -40 76 -56 127 -16 51 -38 103 -48 117 -33 45 -69 124 -85 185 -8 32 -23 70 -34 84 -35 49 -82 139 -82 157 0 41 -23 97 -65 159 -24 37 -55 102 -72 152 -15 48 -39 103 -52 123 -33 48 -59 108 -71 166 -6 28 -28 76 -50 107 -21 32 -46 79 -56 105 -9 26 -41 97 -71 159 -29 62 -53 118 -53 126 0 16 -65 152 -91 188 -10 14 -23 47 -29 73 -12 54 -41 116 -77 164 -13 18 -38 75 -54 126 -17 55 -41 109 -59 131 -25 31 -70 148 -70 182 0 5 -20 40 -45 78 -25 38 -55 100 -67 139 -11 38 -39 101 -61 139 -21 39 -47 93 -57 121 -29 81 -64 161 -83 189 -9 15 -31 64 -48 110 -16 46 -45 108 -64 138 -19 29 -35 60 -35 69 -1 24 -55 146 -79 176 -12 15 -34 69 -50 120 -16 51 -41 108 -54 126 -38 49 -74 127 -82 175 -4 23 -29 79 -56 124 -29 47 -54 103 -59 130 -10 54 -39 117 -77 167 -13 18 -40 77 -58 132 -18 55 -44 114 -58 132 -28 38 -53 98 -67 164 -6 25 -21 60 -34 78 -33 43 -72 124 -81 166 -4 19 -29 75 -56 124 -27 49 -55 110 -63 136 -8 26 -19 56 -24 66 -29 54 -93 198 -118 261 -15 40 -35 80 -46 89 -10 10 -32 60 -49 113 -16 52 -46 120 -65 151 -19 31 -46 89 -59 128 -13 39 -32 83 -42 98 -20 31 -57 115 -84 193 -10 29 -39 94 -63 145 -25 50 -57 123 -71 161 -14 39 -38 88 -54 110 -15 22 -40 78 -55 125 -15 47 -40 105 -56 130 -16 25 -41 77 -55 115 -14 39 -48 115 -74 170 -27 55 -54 118 -61 140 -7 22 -34 85 -61 140 -26 55 -62 137 -79 182 -17 46 -36 85 -41 88 -17 11 -42 69 -64 150 -13 48 -39 105 -63 143 -25 39 -46 88 -55 128 -10 40 -32 92 -61 138 -26 42 -50 96 -57 127 -13 59 -43 125 -83 178 -14 19 -26 43 -26 52 0 37 -43 156 -70 195 -32 44 -63 118 -75 174 -4 19 -29 74 -56 122 -27 48 -52 106 -55 130 -7 47 -44 126 -80 173 -12 17 -26 44 -29 60 -20 88 -49 165 -75 202 -17 23 -43 81 -59 130 -17 48 -50 126 -75 173 -25 47 -46 93 -46 103 0 36 -42 143 -75 192 -21 31 -43 86 -59 144 -14 52 -34 104 -45 115 -29 32 -68 116 -76 166 -4 25 -23 74 -43 110 -64 116 -72 134 -72 152 0 29 -47 136 -73 167 -13 16 -36 71 -51 125 -15 54 -43 123 -61 154 -19 31 -46 93 -60 137 -14 44 -45 121 -70 170 -24 50 -56 126 -71 170 -15 43 -40 97 -55 120 -16 22 -39 76 -51 120 -13 44 -33 94 -45 111 -27 38 -60 112 -78 174 -17 59 -55 146 -81 190 -12 19 -34 73 -49 120 -15 47 -40 103 -56 125 -15 23 -39 81 -54 130 -15 50 -38 103 -50 120 -23 32 -75 145 -75 163 0 20 -61 165 -81 194 -12 16 -33 68 -48 116 -16 48 -42 109 -59 135 -17 27 -38 74 -47 105 -10 32 -22 72 -27 89 -5 18 -14 35 -19 39 -16 9 -75 136 -87 185 -6 25 -34 86 -62 136 -27 51 -50 99 -50 107 0 28 -39 115 -75 167 -19 28 -35 59 -35 68 -1 34 -48 148 -81 197 -20 28 -46 80 -58 115 -26 74 -43 111 -72 156 -11 18 -33 67 -48 110 -16 43 -44 102 -64 130 -19 29 -45 79 -56 110 -21 60 -26 68 -75 148 -16 26 -40 77 -53 114 -14 36 -36 80 -49 98 -27 35 -84 151 -84 170 0 6 -16 32 -35 57 -35 46 -70 111 -95 176 -7 19 -26 53 -42 75 -15 22 -44 81 -63 130 -19 49 -44 98 -55 110 -11 11 -35 52 -54 90 -18 39 -54 97 -79 130 -24 33 -52 76 -61 95 -22 50 -201 273 -311 388 -27 29 -75 70 -105 92 -30 21 -71 55 -90 75 -19 20 -51 45 -70 55 -19 10 -55 36 -80 58 -25 21 -68 51 -96 65 -28 14 -64 37 -80 50 -42 34 -93 63 -137 77 -21 6 -50 22 -66 36 -39 32 -118 71 -171 83 -25 6 -85 31 -133 55 -49 25 -125 54 -170 66 -45 11 -118 39 -162 61 -58 28 -110 45 -189 60 -63 12 -150 37 -205 60 -64 26 -129 44 -197 54 -93 14 -147 29 -249 68 -46 18 -120 39 -220 61 -44 10 -89 29 -120 51 -27 18 -88 50 -134 69 -47 20 -99 49 -115 65 -17 16 -56 39 -86 51 -101 39 -150 93 -150 163 0 18 5 38 12 45 6 6 54 21 107 33 54 12 137 41 191 67 173 81 180 82 1094 82 766 0 792 1 835 20 53 25 78 25 127 3 36 -17 127 -19 1249 -25 1408 -9 2164 -19 2183 -32 8 -4 147 -9 310 -10 237 -2 311 -6 367 -19 53 -13 119 -17 267 -17 162 0 212 -4 280 -20 51 -12 118 -20 175 -20 87 0 93 -1 112 -26 12 -15 21 -35 21 -45 0 -35 -372 -424 -439 -459 -20 -10 -49 -31 -64 -46 -16 -14 -63 -40 -105 -56 -41 -16 -97 -45 -124 -64 -27 -20 -68 -42 -93 -49 -59 -18 -82 -31 -133 -76 -23 -20 -64 -47 -89 -59 -26 -12 -87 -58 -136 -103 -76 -69 -95 -93 -123 -154 -53 -114 -64 -171 -60 -313 2 -90 9 -146 24 -200 12 -41 30 -113 41 -160 10 -47 35 -123 56 -170 20 -47 48 -128 63 -180 14 -52 33 -106 42 -120 38 -55 70 -131 79 -186 11 -70 34 -127 68 -172 13 -18 35 -71 48 -117 13 -46 44 -126 69 -178 25 -51 51 -118 57 -148 12 -56 44 -130 80 -187 12 -18 30 -67 41 -110 11 -42 30 -95 42 -117 33 -57 72 -151 90 -215 8 -30 33 -84 54 -120 23 -38 48 -100 61 -150 15 -55 35 -104 60 -141 23 -34 45 -85 55 -126 9 -37 42 -117 72 -178 30 -60 54 -116 54 -123 0 -21 49 -135 75 -172 22 -31 51 -114 69 -193 4 -15 22 -49 40 -75 47 -66 55 -85 67 -146 5 -31 31 -93 58 -143 27 -48 52 -104 56 -123 9 -44 60 -158 81 -181 15 -17 64 -160 64 -188 0 -10 12 -33 26 -52 32 -41 84 -148 84 -170 0 -9 24 -63 53 -120 30 -57 59 -130 66 -162 8 -38 28 -80 56 -121 28 -42 51 -91 65 -142 12 -44 37 -101 55 -129 18 -27 45 -89 59 -137 15 -47 35 -97 45 -110 30 -37 69 -122 82 -174 7 -27 35 -98 64 -159 29 -60 63 -138 75 -173 13 -34 35 -80 51 -101 15 -22 40 -79 55 -128 15 -48 42 -109 59 -134 17 -26 42 -80 54 -120 12 -41 29 -87 38 -104 71 -134 93 -181 93 -199 0 -19 33 -92 90 -196 10 -19 28 -66 40 -105 11 -38 36 -92 55 -120 18 -27 45 -89 59 -136 14 -47 38 -101 52 -120 34 -45 74 -133 74 -164 0 -14 24 -72 54 -130 30 -57 57 -119 61 -137 9 -39 37 -97 75 -153 14 -22 36 -78 49 -125 13 -51 36 -105 56 -135 18 -27 46 -86 61 -130 15 -44 35 -91 44 -105 19 -27 73 -149 85 -190 4 -14 18 -49 31 -78 13 -29 24 -56 24 -61 0 -5 9 -19 19 -33 11 -13 35 -69 54 -124 20 -56 49 -121 66 -145 16 -24 40 -80 53 -124 12 -44 32 -93 43 -110 32 -43 71 -125 80 -163 4 -18 31 -80 61 -137 30 -58 54 -117 54 -132 0 -35 39 -118 73 -159 16 -19 37 -68 52 -120 14 -49 35 -100 45 -114 32 -40 46 -70 69 -145 12 -38 31 -86 42 -105 39 -68 86 -175 93 -208 3 -19 26 -69 50 -112 24 -42 53 -109 64 -147 12 -38 39 -96 61 -128 22 -33 45 -80 50 -105 13 -59 44 -132 75 -173 13 -18 33 -63 46 -102 12 -38 46 -119 75 -180 29 -60 57 -123 61 -140 3 -16 28 -75 55 -130 26 -55 61 -136 78 -180 17 -45 42 -96 56 -115 23 -32 57 -120 70 -185 3 -17 24 -58 46 -90 22 -33 49 -91 61 -130 11 -38 40 -104 64 -146 24 -42 49 -99 55 -125 13 -52 62 -158 85 -185 8 -9 30 -61 48 -117 19 -56 46 -116 59 -134 14 -18 37 -73 52 -122 15 -49 40 -107 57 -130 37 -51 64 -112 73 -165 4 -22 28 -76 55 -120 27 -45 53 -102 59 -132 13 -59 51 -139 87 -182 13 -16 24 -34 24 -42 0 -31 42 -145 66 -181 15 -21 42 -83 60 -137 18 -53 41 -109 52 -125 33 -46 71 -128 81 -174 6 -24 32 -84 59 -133 27 -50 53 -106 57 -125 11 -51 39 -113 73 -159 17 -23 36 -65 42 -94 16 -66 52 -148 73 -165 9 -8 28 -50 43 -95 14 -45 50 -132 80 -193 29 -60 56 -123 60 -140 4 -16 30 -78 59 -139 29 -60 65 -143 80 -183 15 -40 37 -85 50 -100 12 -15 34 -65 50 -112 15 -47 44 -114 65 -150 21 -36 46 -87 55 -115 9 -27 38 -95 65 -150 27 -55 54 -122 61 -150 13 -53 46 -126 85 -185 13 -19 35 -73 50 -120 14 -47 37 -100 51 -118 28 -37 67 -130 77 -184 3 -20 19 -53 35 -75 40 -56 58 -92 72 -149 7 -27 34 -87 60 -134 26 -47 53 -107 60 -135 13 -52 45 -124 84 -185 13 -19 35 -73 50 -120 16 -47 41 -103 56 -125 15 -22 40 -80 54 -129 14 -48 36 -101 49 -117 33 -39 72 -125 80 -177 4 -25 25 -71 51 -113 26 -39 51 -95 59 -127 19 -79 32 -109 70 -162 18 -25 45 -85 60 -135 16 -49 41 -108 58 -131 16 -23 42 -82 58 -132 16 -50 40 -106 54 -124 34 -45 76 -138 76 -168 0 -27 25 -79 71 -148 16 -24 36 -75 45 -113 11 -49 29 -90 60 -136 24 -36 49 -84 55 -107 19 -74 42 -130 72 -172 15 -23 41 -82 57 -132 16 -50 40 -106 53 -124 37 -49 63 -107 76 -166 6 -30 33 -89 60 -135 29 -49 52 -100 55 -125 7 -50 36 -111 77 -163 15 -20 33 -56 38 -80 17 -74 39 -128 72 -174 18 -25 42 -81 56 -127 13 -46 36 -101 52 -123 40 -56 66 -112 80 -169 7 -27 20 -61 30 -75 32 -45 67 -123 89 -196 12 -38 39 -100 62 -137 22 -37 52 -104 66 -150 15 -46 40 -102 56 -124 16 -23 43 -81 59 -129 16 -48 40 -101 54 -119 13 -18 36 -63 50 -102 14 -38 48 -114 75 -169 26 -55 52 -113 55 -130 4 -16 34 -81 66 -144 33 -63 59 -121 59 -130 0 -23 47 -120 76 -159 14 -18 39 -75 55 -127 16 -52 41 -107 55 -124 24 -29 74 -157 74 -191 0 -9 12 -32 26 -51 35 -47 80 -137 89 -179 4 -19 29 -74 55 -122 27 -48 56 -111 66 -140 25 -76 62 -158 85 -186 10 -14 19 -32 19 -41 0 -22 56 -139 85 -177 13 -17 31 -58 39 -91 21 -80 44 -133 68 -160 11 -12 35 -67 54 -123 18 -56 44 -116 57 -133 38 -50 74 -128 82 -177 4 -27 26 -76 56 -123 27 -43 54 -98 59 -122 11 -49 61 -159 84 -184 8 -9 24 -37 34 -62 18 -42 102 -162 181 -259 16 -20 43 -59 60 -87 57 -93 98 -80 149 46 19 45 44 94 57 109 13 15 38 73 56 127 17 55 43 114 56 132 13 17 38 66 54 109 16 42 45 102 63 133 19 31 44 90 56 131 13 41 37 95 55 120 46 64 64 103 75 162 7 33 31 86 65 143 30 50 55 97 55 106 0 17 63 150 89 188 10 14 23 48 30 75 14 56 41 112 81 168 16 21 33 61 39 87 12 57 52 145 81 181 11 14 34 65 50 114 17 49 41 101 53 116 13 15 39 70 57 121 18 52 45 108 58 124 32 38 67 118 76 172 4 23 28 74 53 115 25 40 54 96 64 123 30 83 63 158 86 195 12 19 25 49 29 65 9 39 56 131 88 174 14 18 28 48 31 65 15 69 40 131 73 179 19 28 48 88 63 134 16 46 40 99 54 117 13 18 41 76 60 131 20 54 47 111 60 127 31 37 60 102 74 166 6 29 31 83 57 124 26 40 51 89 56 108 6 19 21 59 34 88 13 29 24 56 24 60 0 5 11 23 24 41 14 19 28 48 32 65 9 41 68 159 88 175 9 7 25 45 36 85 31 105 40 127 70 166 26 34 63 119 76 172 3 14 21 50 40 79 18 29 47 91 64 138 17 47 40 95 50 106 28 31 66 115 78 171 6 28 32 84 57 125 25 41 50 92 56 114 14 56 58 155 85 190 12 17 26 44 30 60 12 48 44 116 80 167 18 27 35 63 39 80 11 56 55 166 72 180 22 17 69 124 78 173 4 22 25 66 46 98 21 31 47 83 58 115 11 31 28 71 38 87 60 108 82 155 88 190 4 22 31 81 60 130 32 53 56 108 60 135 8 51 42 123 78 166 13 16 32 54 42 84 27 83 54 143 75 165 10 11 31 58 46 104 15 46 43 107 63 135 19 28 47 91 62 139 16 50 46 114 69 149 22 33 47 86 55 117 9 31 23 70 32 86 48 87 93 180 93 192 0 15 54 124 81 164 10 14 23 48 30 75 13 53 57 143 89 184 11 14 30 62 43 108 14 49 39 104 60 135 35 51 77 152 77 187 0 9 19 46 43 82 24 36 53 96 65 133 13 37 33 81 46 99 28 36 76 147 76 174 0 11 25 60 55 110 32 54 57 108 61 134 8 49 45 129 79 170 13 15 37 71 54 125 18 54 45 116 60 138 16 22 43 81 60 130 18 49 41 99 51 110 10 11 33 58 50 105 17 47 38 96 46 110 34 62 85 176 95 213 6 23 15 47 20 53 5 6 15 30 24 53 8 23 24 56 36 72 11 16 34 71 50 122 16 50 42 110 58 132 27 39 71 149 71 181 0 8 13 34 29 57 44 65 71 123 81 177 5 27 28 82 51 122 22 40 54 114 70 163 16 50 42 108 58 130 27 38 62 132 76 203 4 18 17 45 30 60 33 39 70 119 85 180 6 28 16 55 21 58 18 11 77 139 88 192 12 59 30 97 72 157 15 22 37 76 49 120 24 85 36 114 74 169 12 19 33 67 45 108 12 40 29 87 38 103 9 17 30 57 48 90 18 33 38 82 44 109 12 51 50 132 82 176 10 14 29 62 42 107 14 47 39 104 60 135 22 32 45 84 58 133 13 51 34 97 56 128 37 51 73 133 73 169 0 12 22 62 49 112 30 56 58 130 74 191 15 55 41 150 58 210 29 101 32 125 36 304 5 185 4 199 -22 310 -15 64 -35 139 -45 166 -10 28 -25 83 -34 123 -9 40 -36 114 -60 163 -24 49 -53 120 -65 157 -11 37 -38 93 -59 123 -22 31 -49 86 -61 122 -12 36 -39 90 -60 120 -21 30 -46 79 -56 108 -19 59 -67 150 -89 168 -7 6 -24 44 -37 83 -12 39 -38 94 -57 122 -19 28 -47 92 -63 142 -16 51 -42 107 -58 128 -16 20 -45 77 -65 127 -21 51 -48 106 -62 124 -13 18 -41 73 -60 121 -20 49 -46 103 -58 119 -13 17 -37 73 -55 126 -17 53 -43 111 -57 130 -32 41 -84 148 -84 170 0 9 -15 39 -34 66 -47 69 -74 124 -86 179 -6 26 -19 59 -30 74 -27 38 -90 171 -90 190 0 9 -23 53 -51 98 -27 45 -58 106 -68 135 -21 58 -55 128 -84 170 -11 16 -26 54 -34 85 -17 65 -42 117 -76 158 -13 16 -34 59 -46 97 -13 37 -41 95 -64 129 -23 34 -54 100 -69 147 -16 47 -42 105 -58 130 -16 26 -42 81 -59 124 -16 43 -42 94 -56 113 -15 19 -44 78 -65 131 -21 52 -48 105 -59 117 -26 28 -57 98 -71 161 -6 28 -24 69 -41 92 -34 49 -79 141 -79 164 0 10 -16 41 -36 70 -39 58 -76 135 -88 184 -4 16 -23 51 -43 77 -19 27 -50 86 -68 131 -18 45 -48 105 -68 134 -19 29 -41 69 -47 90 -7 21 -36 88 -65 148 -29 61 -58 128 -64 149 -5 22 -33 76 -61 122 -28 45 -57 103 -64 128 -8 26 -35 80 -60 120 -26 41 -53 95 -60 120 -8 26 -35 80 -60 121 -26 41 -53 96 -61 123 -8 27 -34 77 -57 113 -23 35 -51 91 -63 124 -12 33 -44 90 -72 127 -30 40 -55 87 -62 115 -7 25 -23 60 -37 76 -33 39 -69 111 -84 167 -7 24 -23 58 -37 74 -32 38 -68 110 -83 166 -7 25 -28 66 -47 93 -19 26 -51 84 -70 130 -19 45 -45 94 -59 108 -14 14 -43 68 -65 120 -23 52 -49 103 -59 114 -10 11 -35 58 -54 104 -20 47 -49 102 -66 123 -17 20 -46 74 -65 120 -19 45 -48 99 -65 119 -16 21 -39 62 -50 92 -11 29 -40 83 -65 118 -25 35 -52 88 -61 117 -9 29 -28 68 -43 85 -49 57 -72 96 -87 146 -8 28 -25 63 -39 79 -13 16 -45 71 -71 123 -26 52 -55 103 -65 114 -10 11 -38 61 -62 110 -25 50 -59 107 -76 129 -17 21 -31 44 -31 50 0 22 -48 112 -85 161 -21 27 -44 69 -51 92 -7 23 -31 66 -53 95 -22 29 -53 81 -69 114 -15 34 -42 79 -59 100 -17 22 -34 50 -38 64 -14 46 -57 124 -91 166 -18 23 -42 64 -52 92 -11 28 -41 81 -67 119 -26 37 -56 88 -67 112 -10 24 -32 59 -48 78 -17 19 -50 73 -74 122 -24 48 -52 94 -62 102 -9 7 -28 38 -41 68 -14 30 -46 87 -73 125 -27 39 -56 89 -65 111 -10 21 -32 57 -50 80 -18 22 -50 74 -70 115 -21 41 -51 91 -66 112 -16 20 -36 54 -45 75 -9 21 -40 70 -68 108 -29 39 -63 93 -75 120 -12 28 -32 61 -45 75 -12 14 -38 52 -56 85 -18 33 -50 84 -72 113 -21 29 -48 73 -58 98 -11 25 -38 66 -59 92 -22 26 -56 79 -76 117 -21 39 -48 83 -62 99 -13 16 -33 47 -45 70 -11 22 -42 68 -68 101 -26 33 -56 78 -68 100 -11 22 -34 58 -52 80 -18 22 -41 58 -52 80 -12 22 -42 67 -68 100 -26 33 -57 78 -68 100 -11 22 -38 63 -59 92 -21 28 -50 73 -65 100 -16 26 -49 76 -75 109 -27 34 -61 83 -76 110 -39 67 -111 172 -141 203 -13 14 -40 53 -60 86 -19 32 -54 82 -76 110 -41 51 -87 116 -137 193 -16 24 -53 75 -84 115 -30 40 -66 90 -79 112 -13 22 -41 60 -63 85 -21 25 -47 61 -57 81 -10 19 -26 42 -35 49 -9 8 -49 58 -89 113 -129 177 -143 196 -179 236 -20 22 -43 55 -53 73 -9 18 -35 56 -58 83 -23 28 -61 75 -84 105 -23 30 -61 78 -85 106 -23 28 -64 80 -92 115 -27 34 -79 97 -115 139 -99 116 -140 167 -183 226 -21 30 -42 54 -47 54 -4 0 -39 37 -76 83 -38 45 -108 123 -156 172 -48 50 -101 110 -119 135 -17 25 -100 115 -183 200 -84 85 -183 193 -221 240 -91 110 -477 498 -535 537 -25 17 -121 104 -215 194 -93 91 -215 203 -270 250 -55 48 -113 101 -130 119 -16 18 -74 68 -127 111 -54 44 -109 95 -124 114 -14 19 -47 48 -73 64 -25 16 -64 46 -86 67 -22 20 -58 48 -80 62 -22 13 -47 32 -55 42 -17 19 -146 127 -303 252 -60 49 -130 106 -155 129 -26 23 -64 50 -85 61 -22 11 -58 36 -80 57 -23 21 -57 46 -75 55 -18 9 -57 39 -87 66 -30 27 -73 61 -95 75 -23 14 -57 41 -78 59 -20 18 -59 45 -87 59 -27 13 -59 34 -69 46 -11 12 -43 35 -71 51 -28 16 -78 52 -110 81 -33 29 -75 58 -95 67 -19 8 -53 31 -76 52 -23 21 -61 47 -85 57 -24 11 -66 39 -94 63 -27 23 -71 52 -97 64 -26 13 -66 40 -90 61 -24 20 -64 48 -90 60 -26 13 -76 43 -110 68 -35 24 -79 52 -98 62 -19 10 -53 32 -75 49 -22 18 -71 47 -109 65 -39 17 -89 47 -112 66 -23 19 -63 44 -88 55 -25 10 -70 37 -99 59 -29 22 -79 52 -111 66 -33 14 -76 41 -97 59 -21 17 -68 45 -106 60 -37 15 -94 48 -126 72 -33 24 -65 44 -73 44 -23 0 -110 47 -148 80 -19 17 -56 38 -83 47 -26 9 -82 38 -123 64 -41 26 -94 52 -118 59 -23 6 -78 35 -122 65 -44 30 -97 59 -118 65 -22 5 -57 24 -78 41 -42 34 -120 72 -171 83 -18 4 -49 21 -70 38 -50 40 -100 64 -159 79 -27 7 -87 34 -134 60 -47 26 -105 52 -129 59 -25 7 -79 34 -121 60 -41 27 -96 53 -121 59 -56 13 -110 37 -174 78 -28 17 -88 43 -136 57 -47 14 -103 39 -125 56 -22 16 -79 40 -125 54 -47 13 -107 39 -132 56 -50 33 -142 70 -177 70 -21 0 -86 29 -160 72 -25 14 -85 36 -135 49 -49 12 -101 30 -115 39 -52 36 -128 68 -209 89 -46 11 -111 36 -145 55 -34 19 -100 45 -148 59 -55 15 -104 37 -135 59 -26 19 -84 49 -129 65 -45 16 -99 44 -120 61 -21 16 -74 43 -117 58 -47 16 -97 43 -125 66 -26 21 -77 50 -115 64 -37 14 -84 40 -105 58 -21 17 -58 40 -83 51 -24 10 -75 42 -114 71 -38 29 -87 57 -107 62 -21 6 -57 26 -81 46 -24 20 -75 50 -113 67 -80 37 -189 126 -229 188 -23 35 -28 55 -29 107 -1 35 4 66 9 68 16 7 348 5 370 -2z m-5648 -11919 c-3 -10 -5 -4 -5 12 0 17 2 24 5 18 2 -7 2 -21 0 -30z"/>
</g>
</svg>