<svg width="16" height="16" viewBox="0 0 16 16" fill="none" xmlns="http://www.w3.org/2000/svg">
<g clip-path="url(#clip0_333_25466)">
<path d="M7.3 15.2998C7.11667 15.1165 7.02067 14.8832 7.012 14.5998C7.004 14.3165 7.09167 14.0832 7.275 13.8998L12.175 8.99987H1C0.716667 8.99987 0.479 8.90387 0.287 8.71187C0.0956668 8.52053 0 8.2832 0 7.99987C0 7.71654 0.0956668 7.47887 0.287 7.28687C0.479 7.09554 0.716667 6.99987 1 6.99987H12.175L7.275 2.09987C7.09167 1.91654 7.004 1.6832 7.012 1.39987C7.02067 1.11654 7.11667 0.883199 7.3 0.699865C7.48333 0.516532 7.71667 0.424866 8 0.424866C8.28333 0.424866 8.51667 0.516532 8.7 0.699865L15.3 7.29987C15.4 7.3832 15.471 7.4872 15.513 7.61187C15.5543 7.7372 15.575 7.86654 15.575 7.99987C15.575 8.1332 15.5543 8.2582 15.513 8.37487C15.471 8.49154 15.4 8.59987 15.3 8.69987L8.7 15.2998C8.51667 15.4832 8.28333 15.5748 8 15.5748C7.71667 15.5748 7.48333 15.4832 7.3 15.2998Z" fill="#272E34"/>
</g>
<defs>
<clipPath id="clip0_333_25466">
<rect width="16" height="16" fill="white"/>
</clipPath>
</defs>
</svg>
